<svg width="81" height="76" viewBox="0 0 81 76" fill="none" xmlns="http://www.w3.org/2000/svg">
<g opacity="0.5">
<path d="M56.3789 38.5047C56.3789 48.3692 54.3342 57.275 51.0522 63.6963C47.7565 70.1445 43.2935 73.9528 38.5054 73.9528C33.7173 73.9528 29.2543 70.1445 25.9586 63.6963C22.6766 57.275 20.6319 48.3692 20.6319 38.5047C20.6319 28.6402 22.6766 19.7344 25.9586 13.3131C29.2543 6.86488 33.7173 3.05655 38.5054 3.05655C43.2935 3.05655 47.7565 6.86488 51.0522 13.3131C54.3342 19.7344 56.3789 28.6402 56.3789 38.5047Z" stroke="white"/>
<path d="M49.7899 53.0765C41.468 58.3732 32.8571 61.4303 25.6777 62.1094C18.4682 62.7914 12.8591 61.0712 10.2881 57.0319C7.71719 52.9926 8.53356 47.1827 12.2037 40.94C15.8586 34.7234 22.2738 28.2165 30.5956 22.9198C38.9175 17.6231 47.5284 14.5661 54.7078 13.8869C61.9173 13.2049 67.5264 14.9251 70.0974 18.9644C72.6683 23.0037 71.8519 28.8136 68.1818 35.0563C64.5269 41.273 58.1117 47.7798 49.7899 53.0765Z" stroke="white"/>
<path d="M51.0571 24.9313C58.2824 31.6725 63.4107 39.2537 65.875 46.0417C68.3498 52.8584 68.0943 58.724 64.8282 62.2246C61.5622 65.7252 55.7283 66.3862 48.7567 64.3894C41.8143 62.4009 33.8962 57.8099 26.6709 51.0687C19.4456 44.3275 14.3174 36.7463 11.853 29.9583C9.37824 23.1416 9.63372 17.276 12.8998 13.7754C16.1658 10.2748 21.9997 9.61379 28.9713 11.6106C35.9137 13.5991 43.8318 18.1901 51.0571 24.9313Z" stroke="white"/>
</g>
</svg>
