<svg width="34" height="444" viewBox="0 0 34 444" fill="none" xmlns="http://www.w3.org/2000/svg">
<g clip-path="url(#clip0_11_213)">
<path d="M32.1161 444H30.2322V432.279V420.566L19.3773 413.427L8.52243 406.279L8.5314 387.259C8.54037 376.794 8.57625 362.923 8.60317 356.438L8.65699 344.646L19.4222 337.631L30.1873 330.616L30.2142 326.069L30.2322 321.522L22.0776 314.02L13.923 306.527L13.8691 305.793C13.8422 305.395 13.7794 293.523 13.7256 279.413C13.6718 265.303 13.609 253.422 13.5821 253.015L13.5282 252.281L11.0253 249.778L8.52243 247.283V239.675V232.076L7.64327 231.837C5.98364 231.377 4.54828 230.572 3.29235 229.396C1.16623 227.405 0 224.742 0 221.867C0 219.78 0.601055 217.771 1.7314 216.099C3.23852 213.861 5.38259 212.384 8.14565 211.694L8.52243 211.597V204.166L8.52243 196.744L11.0612 194.214L13.591 191.683L13.7256 164.614L13.8602 137.544L14.3984 137.039C14.7034 136.765 18.3815 133.386 22.5889 129.52L30.2322 122.496V117.958V113.428L19.4401 106.395L8.65699 99.3626L8.60317 87.5704C8.57625 81.0771 8.54037 67.206 8.5314 56.7407L8.52243 37.7122L19.3773 30.582L30.2322 23.4429V11.7215L30.2322 0H32.1161H34V25.7872L34 51.5744L23.1451 58.7135L12.2902 65.8436L12.2902 81.5991V97.3545L23.1361 104.423L33.9821 111.491L33.9372 148.301C33.9103 168.55 33.8654 185.137 33.8296 185.173C33.8026 185.199 30.8871 185.243 27.3615 185.261L20.9472 185.288V184.155C20.9472 183.536 20.9652 173.548 20.9741 161.951L21.0011 140.879L25.6121 136.588L30.2232 132.298V129.918C30.2322 127.6 30.2322 127.547 30.0617 127.662C29.9631 127.733 27.1282 130.334 23.7462 133.439L17.6011 139.092L17.5472 145.691C17.5203 149.318 17.4485 161.482 17.3947 172.726L17.2871 193.152L14.7483 195.717L12.2005 198.274V204.935V211.597L12.5863 211.694C13.4923 211.924 14.7034 212.375 15.3314 212.729C18.5699 214.551 20.5525 217.736 20.696 221.345C20.7768 223.283 20.4718 224.76 19.6464 226.432C18.6507 228.449 16.9731 230.13 14.9367 231.129C14.2459 231.474 13.0976 231.881 12.4966 231.996L12.2005 232.058V238.905V245.761L14.7483 248.3L17.296 250.839L17.3947 271.274C17.4485 282.509 17.5203 294.682 17.5472 298.318L17.6011 304.917L21.1984 308.226C23.181 310.039 26.0248 312.649 27.514 314.029L30.2322 316.532V314.144V311.747L25.6121 307.438L20.9921 303.121L20.9921 282.677C20.9921 271.434 20.9652 261.446 20.9293 260.482L20.8755 258.73L27.3615 258.774C31.2369 258.801 33.8654 258.845 33.8744 258.898C33.8834 258.943 33.9193 275.529 33.9372 295.752L33.9821 332.527L23.1361 339.586L12.2992 346.646L12.2902 362.41L12.2902 378.174L23.1451 385.313L34 392.461V418.23V444H32.1161ZM21.2881 388.489L12.3351 382.606L12.2813 387.135C12.2544 389.63 12.2185 394.522 12.2185 397.999L12.2095 404.324L20.9562 410.074C25.7736 413.232 29.8285 415.895 29.972 415.984L30.2322 416.152L30.2322 405.262V394.372L21.2881 388.489ZM30.0797 27.9457C29.99 27.9988 25.9441 30.6527 21.0818 33.8551L12.2454 39.676L12.2723 50.504C12.2813 56.4665 12.3082 61.3585 12.3261 61.3762C12.3441 61.3939 16.381 58.7665 21.2971 55.5376L30.2232 49.6725L30.2322 38.7649C30.2322 28.4058 30.2232 27.8661 30.0797 27.9457ZM16.8206 220.142C16.4797 218.86 15.5646 217.418 14.5868 216.639C12.4966 214.967 9.68865 214.658 7.37414 215.852C2.5029 218.346 2.49393 225.309 7.34723 227.83C9.11451 228.75 11.4649 228.776 13.2142 227.918C15.152 226.954 16.5156 225.194 16.9103 223.123C17.0718 222.31 17.0269 220.912 16.8206 220.142Z" fill="white"/>
<path d="M33.8654 99.6987C33.4797 100.884 32.0892 101.636 30.8332 101.344C28.8865 100.893 28.1689 98.6106 29.5055 97.1156C30.1963 96.3371 31.6317 96.0806 32.5826 96.5671C33.677 97.1244 34.2512 98.5222 33.8654 99.6987Z" fill="white"/>
<path d="M33.7578 346.247C33.5604 346.787 32.8248 347.504 32.2596 347.689C30.5103 348.273 28.7699 347.061 28.761 345.266C28.761 343.841 29.8823 342.753 31.3536 342.762C32.4211 342.771 33.2375 343.284 33.695 344.248C33.9462 344.788 33.9731 345.628 33.7578 346.247Z" fill="white"/>
<path d="M28.2137 239.472L22.6966 244.912V242.966V241.02L28.2137 235.579L33.7309 230.139V232.085V234.031L28.2137 239.472Z" fill="white"/>
<path d="M28.2137 231.864L22.6966 237.304V235.402V233.5L28.2137 228.06L33.7309 222.619V224.521V226.423L28.2137 231.864Z" fill="white"/>
<path d="M28.2137 224.256L22.6966 229.696V227.75V225.804L28.2137 220.363L33.7309 214.923V216.869V218.815L28.2137 224.256Z" fill="white"/>
<path d="M28.2765 216.586C25.2802 219.541 22.8042 221.956 22.7594 221.956C22.7235 221.956 22.6966 221.107 22.6966 220.071V218.196L28.2137 212.756L33.7309 207.315V209.261V211.207L28.2765 216.586Z" fill="white"/>
<path d="M28.2137 208.952L22.6966 214.392V212.49V210.588L28.2137 205.148L33.7309 199.707V201.609V203.511L28.2137 208.952Z" fill="white"/>
<path d="M22.9657 444H18.8391V439.931V435.861L22.9478 435.879L27.0475 435.906L27.0744 439.948L27.0923 444H22.9657Z" fill="white"/>
<path d="M22.9657 432.5H18.8391V428.475V424.449H22.9657H27.0923V428.475V432.5H22.9657Z" fill="white"/>
<path d="M27.0296 19.5771C27.0026 19.6124 25.1456 19.639 22.9029 19.639H18.8391V15.5696V11.5003H22.9657H27.0923V15.5077C27.0923 17.7193 27.0654 19.5505 27.0296 19.5771Z" fill="white"/>
<path d="M27.0296 8.07672C27.0026 8.1121 25.1456 8.13864 22.9029 8.13864H18.8391V4.0693V-3.14713e-05L22.9478 0.0176611L27.0475 0.0441999L27.0744 4.03392C27.0834 6.22782 27.0654 8.05018 27.0296 8.07672Z" fill="white"/>
</g>
<defs>
<clipPath id="clip0_11_213">
<rect width="444" height="34" fill="white" transform="matrix(0 -1 -1 0 34 444)"/>
</clipPath>
</defs>
</svg>
